<?xml version="1.0" standalone="no"?>
<!DOCTYPE svg PUBLIC "-//W3C//DTD SVG 20010904//EN"
 "http://www.w3.org/TR/2001/REC-SVG-20010904/DTD/svg10.dtd">
<svg version="1.0" xmlns="http://www.w3.org/2000/svg"
 width="700.000000pt" height="700.000000pt" viewBox="0 0 700.000000 700.000000"
 preserveAspectRatio="xMidYMid meet">
<metadata>
Created by potrace 1.11, written by Peter Selinger 2001-2013
</metadata>
<g transform="translate(0.000000,700.000000) scale(0.100000,-0.100000)"
fill="#000000" stroke="none">
<path d="M476 6770 c-104 -18 -197 -96 -225 -190 -8 -26 -11 -257 -11 -782 0
-827 -2 -797 67 -877 19 -23 58 -54 87 -69 l51 -27 770 0 770 0 41 22 c63 34
97 66 129 125 l30 53 3 754 c3 831 5 803 -59 889 -21 28 -51 52 -97 74 l-67
33 -720 2 c-396 0 -742 -3 -769 -7z m1520 -192 l34 -38 0 -735 c0 -808 2 -778
-60 -810 -25 -13 -126 -15 -757 -15 -713 0 -729 1 -761 20 -65 40 -63 15 -60
813 3 676 4 724 21 748 41 61 12 59 815 56 l734 -2 34 -37z"/>
<path d="M2763 6770 c-93 -14 -174 -76 -214 -165 -17 -38 -19 -86 -19 -805 l0
-765 24 -50 c30 -65 104 -131 169 -150 43 -13 151 -15 686 -15 l636 0 -185
-185 -184 -184 -470 -3 -471 -3 -49 -24 c-58 -29 -108 -77 -138 -134 l-23 -42
-3 -769 -2 -768 23 -52 c32 -70 66 -107 129 -141 l53 -30 759 -3 c856 -3 816
-6 904 73 30 27 59 66 73 97 l24 53 3 475 3 475 187 188 187 187 5 -662 5
-663 24 -53 c14 -31 43 -70 73 -97 88 -79 48 -76 904 -73 l759 3 53 30 c59 32
91 66 125 129 l22 41 0 780 0 780 -23 42 c-30 57 -80 105 -138 134 l-49 24
-670 3 -669 3 184 184 185 185 466 0 c384 0 474 3 516 15 65 19 139 85 169
150 l24 50 0 756 c0 838 2 808 -66 887 -19 23 -60 53 -92 69 l-57 28 -755 0
-755 0 -53 -24 c-69 -31 -137 -106 -157 -174 -12 -42 -15 -127 -15 -486 l0
-436 -200 -200 -200 -200 0 636 c0 537 -2 643 -15 686 -20 68 -88 143 -157
174 l-53 24 -720 1 c-396 1 -743 -2 -772 -6z m1487 -165 c15 -8 38 -27 49 -41
21 -27 21 -32 21 -748 l0 -722 -58 -57 -58 -57 -726 2 c-710 3 -726 3 -748 23
-51 45 -50 35 -50 797 0 797 -3 764 70 800 32 17 89 18 753 18 614 0 722 -2
747 -15z m2359 -3 c19 -9 43 -33 53 -52 17 -33 18 -75 18 -748 0 -762 1 -752
-50 -797 -21 -19 -38 -20 -438 -23 l-416 -3 -368 368 -368 368 0 410 c0 453
-2 436 64 476 30 18 60 19 751 19 666 0 723 -1 754 -18z m-3119 -2330 c0 -4
-146 -153 -325 -332 l-325 -325 0 -402 0 -403 402 0 403 0 332 332 333 333 0
-375 c0 -411 1 -403 -60 -435 -25 -13 -129 -15 -745 -15 -792 0 -765 -2 -799
63 -16 29 -17 94 -14 763 3 716 3 732 23 754 42 47 59 49 428 50 191 0 347 -3
347 -8z m3127 -18 c15 -11 34 -32 40 -45 10 -18 13 -194 13 -752 l0 -727 -34
-38 -34 -37 -734 -3 -734 -2 -35 23 c-61 41 -60 27 -57 813 l3 713 34 35 c19
19 43 37 55 39 12 3 344 4 738 3 711 -1 717 -1 745 -22z m-3239 -771 l3 -132
132 -3 132 -3 3 -132 3 -133 -271 0 -270 0 0 270 0 271 133 -3 132 -3 3 -132z"/>
<path d="M5709 6446 c-55 -20 -80 -41 -271 -233 l-178 -178 403 -403 402 -402
196 197 c222 224 235 244 227 355 -2 35 -13 81 -23 103 -12 25 -110 132 -254
278 -265 268 -306 297 -410 297 -31 -1 -72 -7 -92 -14z"/>
<path d="M455 4441 c-55 -14 -112 -50 -153 -96 -76 -86 -73 -49 -70 -901 l3
-759 30 -53 c32 -59 66 -91 129 -125 l41 -22 761 -3 c750 -2 763 -2 817 18 65
24 147 106 169 167 10 30 13 190 13 793 0 719 -1 757 -19 804 -25 66 -84 128
-149 157 l-52 24 -745 2 c-410 0 -758 -2 -775 -6z m1519 -184 c57 -38 56 -24
56 -792 0 -778 2 -756 -62 -795 -32 -20 -45 -20 -765 -18 l-733 3 -32 33 -33
32 -3 733 -2 733 23 35 c13 19 38 39 57 46 26 9 213 12 750 10 675 -2 718 -3
744 -20z"/>
<path d="M414 2144 c-58 -21 -120 -77 -152 -138 l-27 -51 0 -775 0 -775 27
-51 c28 -53 76 -101 131 -131 30 -17 87 -18 797 -21 546 -2 777 0 806 8 66 19
134 77 169 145 l30 59 0 765 0 766 -28 57 c-33 67 -91 121 -155 142 -66 23
-1534 22 -1598 0z m1561 -176 c56 -44 55 -28 55 -788 0 -760 1 -744 -55 -788
l-28 -22 -729 0 c-809 0 -775 -3 -804 65 -12 29 -14 153 -14 743 0 502 3 719
11 741 7 18 26 41 43 52 30 18 61 19 762 19 l731 0 28 -22z"/>
<path d="M1045 1849 c-49 -10 -114 -24 -142 -30 l-53 -10 0 -83 0 -83 93 19
c50 11 122 25 160 32 l67 14 0 -519 0 -519 -150 0 -150 0 0 -75 0 -75 390 0
390 0 0 75 0 75 -150 0 -150 0 0 600 0 600 -107 -1 c-64 -1 -145 -9 -198 -20z"/>
<path d="M2682 2134 c-28 -14 -69 -46 -91 -70 -74 -84 -71 -49 -71 -884 0
-837 -3 -800 73 -886 23 -26 63 -57 92 -70 l50 -24 767 0 766 0 63 33 c77 39
132 111 149 191 7 35 10 288 8 787 -3 809 1 752 -66 845 -20 28 -51 52 -93 73
l-62 31 -767 0 -766 0 -52 -26z m1594 -178 l34 -34 0 -742 0 -742 -34 -34 -34
-34 -731 0 c-803 0 -774 -2 -806 60 -23 44 -23 1456 0 1500 32 61 0 59 804 60
l733 0 34 -34z"/>
<path d="M3440 1900 c-155 -33 -274 -163 -330 -362 -32 -115 -46 -315 -32
-466 36 -398 202 -588 498 -569 278 17 434 270 434 702 0 351 -115 603 -307
675 -65 24 -194 34 -263 20z m232 -175 c56 -39 112 -148 135 -260 20 -99 22
-400 4 -495 -30 -162 -77 -249 -159 -298 -67 -39 -157 -39 -224 1 -121 71
-172 233 -171 542 1 249 39 400 123 484 51 50 84 62 172 59 67 -3 82 -7 120
-33z"/>
<path d="M5032 2130 c-64 -33 -109 -80 -140 -147 -16 -35 -17 -98 -17 -803 l0
-765 24 -49 c29 -60 83 -115 136 -141 39 -19 67 -20 815 -23 l774 -2 53 25
c29 15 70 46 92 71 74 84 71 49 71 884 0 829 2 799 -66 879 -20 23 -57 53 -82
69 l-47 27 -775 3 -776 2 -62 -30z m1578 -155 c62 -32 60 -4 60 -795 0 -625
-2 -725 -15 -750 -32 -62 -3 -60 -804 -60 l-729 0 -31 26 c-17 14 -35 42 -41
62 -14 50 -14 1394 0 1444 6 20 24 48 41 62 l31 26 729 0 c633 0 734 -2 759
-15z"/>
<path d="M5834 1865 c-168 -36 -273 -154 -331 -372 -25 -91 -27 -113 -27 -318
0 -177 3 -234 17 -290 74 -298 223 -427 477 -413 225 13 364 167 416 458 19
111 19 378 0 485 -49 270 -174 423 -373 455 -74 12 -103 12 -179 -5z m201
-154 c74 -34 129 -117 161 -242 21 -86 30 -386 15 -503 -29 -216 -114 -337
-247 -352 -78 -10 -132 10 -189 69 -41 43 -56 67 -77 133 -38 114 -52 241 -45
419 11 275 65 417 180 474 54 27 146 28 202 2z"/>
</g>
</svg>
